<?xml version="1.0" standalone="no"?>
<!DOCTYPE svg PUBLIC "-//W3C//DTD SVG 20010904//EN"
 "http://www.w3.org/TR/2001/REC-SVG-20010904/DTD/svg10.dtd">
<svg version="1.0" xmlns="http://www.w3.org/2000/svg"
 width="626.000000pt" height="417.000000pt" viewBox="0 0 626.000000 417.000000"
 preserveAspectRatio="xMidYMid meet">

<g transform="translate(0.000000,417.000000) scale(0.100000,-0.100000)"
fill="#000000" stroke="none">
<path d="M3 2668 c5 -1859 4 -1711 17 -1703 5 3 10 12 10 20 0 22 14 25 63 16
l45 -8 -21 29 c-19 26 -22 27 -29 11 -7 -16 -7 -16 -5 2 2 11 -11 39 -31 63
-59 74 -29 56 38 -22 72 -84 62 -82 215 -47 44 11 99 22 122 26 22 3 47 14 55
23 21 27 40 64 35 69 -3 2 -54 11 -114 18 -59 7 -139 20 -178 29 -38 8 -100
20 -138 26 -40 8 -67 17 -67 25 0 9 20 9 93 -1 50 -8 162 -22 247 -33 85 -10
162 -20 170 -22 8 -2 14 2 12 9 -2 14 24 16 33 2 3 -5 -1 -10 -11 -10 -13 0
-15 -6 -10 -31 3 -17 6 -46 6 -64 0 -30 4 -35 38 -46 l37 -13 -32 -6 -32 -5
15 -30 c20 -39 187 -181 211 -178 10 1 68 4 128 7 l110 5 -108 -14 c-59 -7
-113 -15 -119 -17 -6 -2 27 -35 73 -74 76 -64 90 -72 149 -82 38 -7 66 -8 68
-3 2 5 14 7 28 5 19 -3 38 6 72 34 82 67 222 173 222 168 0 -2 -57 -50 -127
-106 -72 -56 -138 -117 -150 -138 -39 -65 -33 -81 59 -157 l82 -69 55 21 c93
34 99 35 31 3 -35 -17 -66 -33 -69 -35 -2 -3 7 -13 20 -24 25 -21 64 -27 73
-12 3 4 18 6 33 3 l28 -6 -30 -6 c-49 -9 -44 -38 25 -139 33 -50 58 -91 56
-91 -3 0 -33 41 -67 92 l-62 92 -59 -124 c-32 -67 -57 -124 -56 -125 23 -17
98 -25 240 -25 l170 0 -7 68 c-4 37 -9 74 -11 83 -3 11 3 18 21 21 25 5 34 -5
15 -17 -11 -7 -13 -76 -4 -124 8 -40 37 -41 78 -3 l31 27 -24 -28 -24 -27
2256 0 2257 0 0 2085 0 2085 -3130 0 -3131 0 4 -1502z m6160 1457 c-3 -9 -8
-14 -10 -11 -3 3 -2 9 2 15 9 16 15 13 8 -4z m-49 -103 c-12 -10 -64 -33 -64
-28 0 7 64 45 69 40 3 -2 0 -8 -5 -12z m-524 -2 c0 -5 -5 -10 -11 -10 -5 0 -7
5 -4 10 3 6 8 10 11 10 2 0 4 -4 4 -10z m-770 -100 c0 -5 -4 -10 -10 -10 -5 0
-10 5 -10 10 0 6 5 10 10 10 6 0 10 -4 10 -10z m520 0 c0 -5 -5 -10 -11 -10
-5 0 -7 5 -4 10 3 6 8 10 11 10 2 0 4 -4 4 -10z m175 -40 c3 -5 1 -10 -4 -10
-6 0 -11 5 -11 10 0 6 2 10 4 10 3 0 8 -4 11 -10z m-360 -20 c3 -5 1 -10 -4
-10 -6 0 -11 5 -11 10 0 6 2 10 4 10 3 0 8 -4 11 -10z m-195 -60 c0 -5 -5 -10
-11 -10 -5 0 -7 5 -4 10 3 6 8 10 11 10 2 0 4 -4 4 -10z m620 -130 c0 -5 -4
-10 -10 -10 -5 0 -10 5 -10 10 0 6 5 10 10 10 6 0 10 -4 10 -10z m200 -70 c0
-5 -4 -10 -10 -10 -5 0 -10 5 -10 10 0 6 5 10 10 10 6 0 10 -4 10 -10z m380 0
c0 -5 -2 -10 -4 -10 -3 0 -8 5 -11 10 -3 6 -1 10 4 10 6 0 11 -4 11 -10z
m-1320 -20 c0 -5 -4 -10 -10 -10 -5 0 -10 5 -10 10 0 6 5 10 10 10 6 0 10 -4
10 -10z m630 6 c0 -3 -4 -8 -10 -11 -5 -3 -10 -1 -10 4 0 6 5 11 10 11 6 0 10
-2 10 -4z m510 -86 c0 -5 -4 -10 -10 -10 -5 0 -10 5 -10 10 0 6 5 10 10 10 6
0 10 -4 10 -10z m270 0 c0 -5 -4 -10 -10 -10 -5 0 -10 5 -10 10 0 6 5 10 10
10 6 0 10 -4 10 -10z m-80 -34 c0 -3 -4 -8 -10 -11 -5 -3 -10 -1 -10 4 0 6 5
11 10 11 6 0 10 -2 10 -4z m-712 -78 c67 -23 121 -43 118 -45 -6 -7 -205 53
-258 77 -64 29 -8 16 140 -32z m192 -70 c0 -13 -23 -5 -28 10 -2 7 2 10 12 6
9 -3 16 -11 16 -16z m-1230 2 c0 -5 -4 -10 -10 -10 -5 0 -10 5 -10 10 0 6 5
10 10 10 6 0 10 -4 10 -10z m650 -150 c0 -5 -2 -10 -4 -10 -3 0 -8 5 -11 10
-3 6 -1 10 4 10 6 0 11 -4 11 -10z m1010 -190 c0 -5 -2 -10 -4 -10 -3 0 -8 5
-11 10 -3 6 -1 10 4 10 6 0 11 -4 11 -10z m-1575 -20 c3 -5 1 -10 -4 -10 -6 0
-11 5 -11 10 0 6 2 10 4 10 3 0 8 -4 11 -10z m-2495 -90 c0 -11 -6 -20 -14
-20 -18 0 -29 16 -21 30 11 18 35 11 35 -10z m-637 -36 c-6 -16 -6 -16 -27 -8
-12 5 -13 10 -5 26 8 15 13 17 24 8 8 -6 11 -18 8 -26z m2257 -54 c0 -5 -4
-10 -10 -10 -5 0 -10 5 -10 10 0 6 5 10 10 10 6 0 10 -4 10 -10z m-2655 -120
c4 -6 1 -18 -6 -26 -11 -13 -14 -13 -27 0 -8 8 -11 19 -8 25 9 14 33 14 41 1z
m3980 0 c3 -5 1 -10 -4 -10 -6 0 -11 5 -11 10 0 6 2 10 4 10 3 0 8 -4 11 -10z
m575 -60 c0 -5 -2 -10 -4 -10 -3 0 -8 5 -11 10 -3 6 -1 10 4 10 6 0 11 -4 11
-10z m-3060 -30 c0 -5 -7 -10 -15 -10 -8 0 -15 5 -15 10 0 6 7 10 15 10 8 0
15 -4 15 -10z m600 0 c0 -5 -7 -10 -15 -10 -8 0 -15 5 -15 10 0 6 7 10 15 10
8 0 15 -4 15 -10z m2970 0 c0 -5 -4 -10 -10 -10 -5 0 -10 5 -10 10 0 6 5 10
10 10 6 0 10 -4 10 -10z m-2565 -132 c122 -41 177 -64 120 -52 -45 10 -241 73
-278 90 l-32 15 35 -7 c19 -4 89 -24 155 -46z m2725 42 c0 -5 -4 -10 -10 -10
-5 0 -10 5 -10 10 0 6 5 10 10 10 6 0 10 -4 10 -10z m-4945 -35 c0 -22 -14
-28 -34 -16 -12 8 -13 12 -1 26 16 20 35 14 35 -10z m2816 -8 c-13 -13 -26 -3
-16 12 3 6 11 8 17 5 6 -4 6 -10 -1 -17z m1709 -87 c0 -5 -2 -10 -4 -10 -3 0
-8 5 -11 10 -3 6 -1 10 4 10 6 0 11 -4 11 -10z m-2000 -16 c0 -17 -22 -14 -28
4 -2 7 3 12 12 12 9 0 16 -7 16 -16z m1420 12 c0 -3 -4 -8 -10 -11 -5 -3 -10
-1 -10 4 0 6 5 11 10 11 6 0 10 -2 10 -4z m-525 -56 c3 -5 1 -10 -4 -10 -6 0
-11 5 -11 10 0 6 2 10 4 10 3 0 8 -4 11 -10z m-4176 -9 c19 -12 6 -41 -19 -41
-13 0 -20 7 -20 18 0 31 14 39 39 23z m4541 -55 c0 -11 -19 -15 -25 -6 -3 5 1
10 9 10 9 0 16 -2 16 -4z m900 0 c0 -3 -4 -8 -10 -11 -5 -3 -10 -1 -10 4 0 6
5 11 10 11 6 0 10 -2 10 -4z m-1060 -30 c0 -3 -4 -8 -10 -11 -5 -3 -10 -1 -10
4 0 6 5 11 10 11 6 0 10 -2 10 -4z m-3550 -376 c36 -242 74 -570 66 -578 -3
-3 -6 1 -6 9 0 8 -11 86 -25 174 -47 294 -98 696 -94 737 2 18 23 -108 59
-342z m-1090 206 c0 -2 -8 -10 -17 -17 -16 -13 -17 -12 -4 4 13 16 21 21 21
13z m2738 -18 c-6 -18 -28 -21 -28 -4 0 9 7 16 16 16 9 0 14 -5 12 -12z m917
-58 c3 -5 -1 -10 -9 -10 -9 0 -16 5 -16 10 0 6 4 10 9 10 6 0 13 -4 16 -10z
m-1477 -142 c-6 -18 -28 -21 -28 -4 0 9 7 16 16 16 9 0 14 -5 12 -12z m2027 2
c3 -5 -1 -10 -9 -10 -9 0 -16 5 -16 10 0 6 4 10 9 10 6 0 13 -4 16 -10z
m-2482 -74 c8 -19 -15 -37 -32 -26 -17 10 -7 40 13 40 7 0 16 -6 19 -14z
m-1085 -49 c5 -25 -28 -34 -44 -12 -11 15 -11 20 -1 27 18 12 41 5 45 -15z
m2782 -2 c0 -8 -4 -15 -10 -15 -5 0 -10 7 -10 15 0 8 5 15 10 15 6 0 10 -7 10
-15z m587 -131 c-9 -9 -28 6 -21 18 4 6 10 6 17 -1 6 -6 8 -13 4 -17z m344 3
c-13 -13 -26 -3 -16 12 3 6 11 8 17 5 6 -4 6 -10 -1 -17z m-3423 -71 c-4 -25
-36 -34 -44 -12 -8 21 13 46 32 39 8 -3 14 -15 12 -27z m3196 -37 c-3 -5 -10
-7 -15 -3 -5 3 -7 10 -3 15 3 5 10 7 15 3 5 -3 7 -10 3 -15z m-353 -72 c-13
-13 -26 -3 -16 12 3 6 11 8 17 5 6 -4 6 -10 -1 -17z m610 10 c-1 -12 -15 -9
-19 4 -3 6 1 10 8 8 6 -3 11 -8 11 -12z m-4211 -127 c8 -5 11 -10 5 -10 -5 0
-17 5 -25 10 -8 5 -10 10 -5 10 6 0 17 -5 25 -10z m110 -42 c10 -6 7 -7 -10
-2 -14 3 -32 11 -40 16 -10 6 -7 7 10 2 14 -3 32 -11 40 -16z m887 -30 c-3 -7
-5 -2 -5 12 0 14 2 19 5 13 2 -7 2 -19 0 -25z m2971 -10 c-6 -18 -28 -21 -28
-4 0 9 7 16 16 16 9 0 14 -5 12 -12z m-3698 -20 c10 -6 7 -7 -10 -2 -14 3 -32
11 -40 16 -10 6 -7 7 10 2 14 -3 32 -11 40 -16z m110 -40 c10 -6 7 -7 -10 -2
-14 3 -32 11 -40 16 -10 6 -7 7 10 2 14 -3 32 -11 40 -16z m80 -30 c10 -6 7
-7 -10 -2 -14 3 -32 11 -40 16 -10 6 -7 7 10 2 14 -3 32 -11 40 -16z m80 -28
c8 -5 11 -10 5 -10 -5 0 -17 5 -25 10 -8 5 -10 10 -5 10 6 0 17 -5 25 -10z
m1190 -30 c0 -24 -25 -33 -40 -14 -10 11 -10 17 0 28 15 19 40 10 40 -14z
m-1437 13 c-13 -2 -33 -2 -45 0 -13 2 -3 4 22 4 25 0 35 -2 23 -4z m3507 -3
c0 -5 -4 -10 -10 -10 -5 0 -10 5 -10 10 0 6 5 10 10 10 6 0 10 -4 10 -10z
m-3402 -7 c-10 -2 -26 -2 -35 0 -10 3 -2 5 17 5 19 0 27 -2 18 -5z m-135 -10
c-7 -2 -19 -2 -25 0 -7 3 -2 5 12 5 14 0 19 -2 13 -5z m300 0 c-7 -2 -21 -2
-30 0 -10 3 -4 5 12 5 17 0 24 -2 18 -5z m117 -14 c10 -6 4 -7 -15 -3 -16 4
-37 11 -45 15 -10 6 -4 7 15 3 17 -4 37 -11 45 -15z m-363 5 c-3 -3 -12 -4
-19 -1 -8 3 -5 6 6 6 11 1 17 -2 13 -5z m46 -11 c-7 -2 -19 -2 -25 0 -7 3 -2
5 12 5 14 0 19 -2 13 -5z m44 -9 c-3 -3 -12 -4 -19 -1 -8 3 -5 6 6 6 11 1 17
-2 13 -5z m50 -10 c-3 -3 -12 -4 -19 -1 -8 3 -5 6 6 6 11 1 17 -2 13 -5z m50
-10 c-3 -3 -12 -4 -19 -1 -8 3 -5 6 6 6 11 1 17 -2 13 -5z m273 -4 c8 -5 11
-10 5 -10 -5 0 -17 5 -25 10 -8 5 -10 10 -5 10 6 0 17 -5 25 -10z m2700 -15
c0 -8 -4 -15 -10 -15 -5 0 -10 7 -10 15 0 8 5 15 10 15 6 0 10 -7 10 -15z
m-780 -81 c0 -21 -27 -17 -33 5 -3 14 0 17 14 14 11 -3 19 -12 19 -19z m-1623
-19 c60 -36 54 -39 -14 -8 -69 31 -72 33 -48 33 10 0 38 -11 62 -25z m-179 -2
c-10 -2 -26 -2 -35 0 -10 3 -2 5 17 5 19 0 27 -2 18 -5z m-100 -10 c-10 -2
-28 -2 -40 0 -13 2 -5 4 17 4 22 1 32 -1 23 -4z m-95 -10 c-13 -2 -35 -2 -50
0 -16 2 -5 4 22 4 28 0 40 -2 28 -4z m642 -111 c-3 -3 -11 0 -18 7 -9 10 -8
11 6 5 10 -3 15 -9 12 -12z m1816 -115 c13 -10 -7 -2 -46 18 -38 20 -77 43
-85 52 -17 17 93 -42 131 -70z m-1647 -20 c-8 -21 -28 -22 -45 -1 -11 14 -10
18 6 30 16 12 21 12 32 1 8 -7 11 -21 7 -30z m-569 -15 c-6 -6 -195 30 -195
37 0 4 45 -2 99 -13 55 -11 98 -22 96 -24z m225 33 c7 -8 29 -16 49 -17 l36
-1 -35 -4 c-19 -3 -41 -9 -47 -15 -18 -14 -43 -2 -43 20 0 33 20 42 40 17z
m-183 -41 c-3 -3 -12 -4 -19 -1 -8 3 -5 6 6 6 11 1 17 -2 13 -5z m56 -11 c-7
-2 -19 -2 -25 0 -7 3 -2 5 12 5 14 0 19 -2 13 -5z m72 -13 c3 -5 2 -10 -4 -10
-5 0 -13 5 -16 10 -3 6 -2 10 4 10 5 0 13 -4 16 -10z m655 -11 c0 -26 -28 -36
-43 -15 -7 8 -30 20 -52 25 -38 8 -36 9 28 9 59 0 67 -2 67 -19z m-525 -24 c0
-30 -39 -27 -43 3 -3 20 0 23 20 20 15 -2 23 -10 23 -23z m-135 -45 c-8 -5
-19 -10 -25 -10 -5 0 -3 5 5 10 8 5 20 10 25 10 6 0 3 -5 -5 -10z m-50 -20
c-8 -5 -19 -10 -25 -10 -5 0 -3 5 5 10 8 5 20 10 25 10 6 0 3 -5 -5 -10z
m2460 -25 c0 -8 -4 -15 -9 -15 -13 0 -22 16 -14 24 11 11 23 6 23 -9z m-2490
-23 c0 -5 -7 -17 -15 -28 -14 -18 -14 -17 -4 9 12 27 19 34 19 19z m113 -49
c-7 -2 -19 -2 -25 0 -7 3 -2 5 12 5 14 0 19 -2 13 -5z m469 -30 c-17 -21 -45
-51 -64 -68 l-33 -30 25 30 c34 42 93 105 98 105 2 0 -10 -17 -26 -37z m-529
20 c-7 -2 -19 -2 -25 0 -7 3 -2 5 12 5 14 0 19 -2 13 -5z m385 -100 c-10 -2
-28 -2 -40 0 -13 2 -5 4 17 4 22 1 32 -1 23 -4z m-18 -106 c0 -2 -12 -14 -27
-28 l-28 -24 24 28 c23 25 31 32 31 24z"/>
<path d="M506 1083 c-6 -14 -5 -15 5 -6 7 7 10 15 7 18 -3 3 -9 -2 -12 -12z"/>
<path d="M385 1030 c-57 -14 -66 -18 -47 -24 13 -4 34 -5 47 -2 20 5 23 3 18
-11 -5 -13 -3 -13 13 3 23 24 48 54 43 53 -2 -1 -35 -9 -74 -19z"/>
<path d="M446 1008 c-26 -34 -27 -55 0 -22 13 16 15 17 10 2 -3 -12 0 -18 9
-18 10 0 15 11 15 35 0 19 -2 35 -4 35 -3 0 -16 -14 -30 -32z"/>
<path d="M502 1005 c0 -16 2 -22 5 -12 2 9 2 23 0 30 -3 6 -5 -1 -5 -18z"/>
<path d="M220 990 c-20 -6 -21 -8 -5 -8 11 0 29 3 40 8 25 11 -1 11 -35 0z"/>
<path d="M328 983 c7 -3 16 -2 19 1 4 3 -2 6 -13 5 -11 0 -14 -3 -6 -6z"/>
<path d="M180 974 c0 -6 15 -23 33 -40 l32 -29 -30 35 c-16 19 -31 37 -32 39
-2 2 -3 0 -3 -5z"/>
<path d="M369 953 c-13 -16 -12 -17 4 -4 9 7 17 15 17 17 0 8 -8 3 -21 -13z"/>
<path d="M13 915 c0 -22 2 -30 4 -17 2 12 2 30 0 40 -3 9 -5 -1 -4 -23z"/>
<path d="M606 931 c20 -16 20 -19 5 -30 -9 -6 -11 -9 -5 -6 16 7 24 -77 10
-88 -6 -4 23 -5 64 -1 41 4 76 7 76 8 4 3 -156 136 -163 136 -4 -1 2 -9 13
-19z"/>
<path d="M720 789 c-35 -4 -43 -6 -22 -7 25 -2 32 -6 32 -23 0 -15 5 -19 16
-15 8 3 12 2 9 -4 -3 -6 5 -10 18 -10 14 0 30 -7 37 -15 11 -13 8 -15 -15 -15
-43 0 -24 -10 40 -20 31 -5 67 -12 78 -15 20 -6 20 -5 -3 15 -14 11 -44 37
-68 58 -24 20 -48 36 -54 34 -5 -1 -7 2 -4 7 10 15 -4 17 -64 10z m145 -89 c3
-5 -3 -10 -15 -10 -12 0 -18 5 -15 10 3 6 10 10 15 10 5 0 12 -4 15 -10z"/>
<path d="M838 653 c6 -2 18 -2 25 0 6 3 1 5 -13 5 -14 0 -19 -2 -12 -5z"/>
<path d="M900 640 c21 -7 22 -8 5 -10 -18 -1 -17 -2 5 -11 27 -11 105 -7 117
5 5 4 -3 7 -17 5 -14 -1 -43 3 -65 9 -44 13 -85 15 -45 2z"/>
<path d="M1058 613 c7 -3 16 -2 19 1 4 3 -2 6 -13 5 -11 0 -14 -3 -6 -6z"/>
<path d="M873 603 c9 -2 23 -2 30 0 6 3 -1 5 -18 5 -16 0 -22 -2 -12 -5z"/>
<path d="M940 589 c-73 -12 -87 -20 -25 -15 l50 5 -35 -14 c-50 -19 -27 -18
36 2 29 9 51 20 48 25 -3 4 -8 7 -12 7 -4 -1 -32 -5 -62 -10z"/>
<path d="M1070 589 l-24 -10 29 -24 30 -23 3 25 c5 33 -7 43 -38 32z"/>
<path d="M994 558 c-21 -9 -21 -11 -6 -29 9 -10 22 -19 29 -19 17 0 17 -17 1
-24 -9 -3 -8 -9 6 -20 10 -8 23 -13 29 -9 6 4 8 -8 5 -33 -3 -21 -2 -50 2 -64
9 -27 9 -26 14 50 1 8 4 20 7 25 4 6 9 26 13 46 6 33 3 40 -25 63 -33 28 -43
30 -75 14z"/>
<path d="M1101 419 c-10 -62 -10 -84 0 -95 9 -11 8 -14 -6 -14 -10 0 -16 -3
-12 -6 3 -4 37 6 74 21 37 15 79 31 92 36 l23 9 -34 28 c-19 15 -52 44 -74 64
-21 21 -42 38 -45 38 -4 0 -12 -36 -18 -81z"/>
<path d="M1230 338 c-25 -11 -65 -29 -90 -40 -25 -10 -34 -17 -20 -14 14 2 67
10 117 17 l93 13 -22 23 c-25 27 -21 27 -78 1z"/>
<path d="M1225 283 c-109 -21 -154 -33 -104 -27 17 2 26 -2 26 -12 0 -8 -7
-14 -15 -14 -9 0 -13 -2 -10 -5 8 -8 232 55 236 66 2 5 8 7 13 3 5 -3 9 -1 9
4 0 13 -26 11 -155 -15z"/>
<path d="M1240 236 c-123 -42 -134 -47 -84 -42 38 3 41 2 28 -13 -8 -9 -13
-19 -12 -22 2 -4 -6 -17 -17 -29 l-20 -23 28 18 c21 14 25 20 15 27 -9 6 -7 8
7 6 13 -2 19 2 17 12 -2 8 0 12 3 8 10 -9 40 7 93 50 23 19 45 33 47 30 3 -2
-30 -32 -73 -66 -44 -34 -87 -70 -96 -81 -16 -18 -16 -19 0 -17 9 0 18 -7 19
-16 3 -14 -1 -15 -22 -7 -13 5 -30 9 -36 8 -7 0 15 -10 48 -23 l60 -23 56 111
c52 101 60 127 41 125 -4 0 -50 -15 -102 -33z"/>
<path d="M1180 20 c27 -21 46 -25 54 -11 7 11 -22 23 -35 15 -5 -3 -9 0 -9 5
0 6 -8 11 -17 11 -15 0 -13 -4 7 -20z"/>
</g>
</svg>
